Coordinates
version=1
nRows=18
nColumns=38
inDegrees=no

Units are S.I. units (second, meters, Newtons, ...)
If the header above contains a line with 'inDegrees', this indicates whether rotational values are in degrees (yes) or radians (no).

endheader
time	pelvis_tilt	pelvis_list	pelvis_rotation	pelvis_tx	pelvis_ty	pelvis_tz	hip_flexion_r	hip_adduction_r	hip_rotation_r	knee_angle_r	ankle_angle_r	subtalar_angle_r	mtp_angle_r	hip_flexion_l	hip_adduction_l	hip_rotation_l	knee_angle_l	ankle_angle_l	subtalar_angle_l	mtp_angle_l	lumbar_extension	lumbar_bending	lumbar_rotation	arm_flex_r	arm_add_r	arm_rot_r	elbow_flex_r	pro_sup_r	wrist_flex_r	wrist_dev_r	arm_flex_l	arm_add_l	arm_rot_l	elbow_flex_l	pro_sup_l	wrist_flex_l	wrist_dev_l
1.95833	-0.0256995	0.0116891	0.0170891	0.897427	1.03606	-0.264789	-0.145589	0.0370066	0.196219	-0.630545	-0.274571	-0.0371035	0.00141215	0.319977	0.118102	0.217138	-0.254352	0.18534	-0.0750876	-0.00272192	-0.121721	-0.0159876	0.144725	-0.430862	-0.305685	0.0574276	1.94475	1.78937	-0.0038772	-0.00480395	-0.805813	-0.24684	0.000425296	1.89816	1.97575	0.0120258	-0.00886156
1.96667	-0.0131962	0.00604699	0.0187896	0.896694	1.03325	-0.265107	-0.137033	0.0434371	0.181714	-0.690731	-0.26515	-0.0371035	0.00141215	0.309621	0.11682	0.222636	-0.274005	0.183586	-0.0750876	-0.00272192	-0.137926	-0.0108801	0.135986	-0.433507	-0.30262	0.0552635	1.92817	1.78594	-0.0038772	-0.00480395	-0.797524	-0.240756	-0.00354292	1.89721	1.97412	0.0120258	-0.00886156
1.975	-0.00258168	0.00207851	0.0204834	0.895639	1.02959	-0.265466	-0.123379	0.047027	0.165102	-0.754979	-0.252406	-0.0371035	0.00141215	0.302814	0.117645	0.225914	-0.299616	0.177685	-0.0750876	-0.00272192	-0.152944	-0.00754243	0.126292	-0.435978	-0.299195	0.0526251	1.91017	1.78256	-0.0038772	-0.00480395	-0.788052	-0.234948	-0.00740362	1.89646	1.97134	0.0120258	-0.00886156
1.98333	0.00521229	0.000400011	0.0219096	0.894221	1.02502	-0.265876	-0.103717	0.0469882	0.147735	-0.822888	-0.236959	-0.0371035	0.00141215	0.300939	0.121215	0.22695	-0.331209	0.168571	-0.0750876	-0.00272192	-0.165858	-0.0065851	0.115784	-0.438274	-0.295568	0.0496195	1.89087	1.77943	-0.0038772	-0.00480395	-0.777389	-0.229542	-0.0110995	1.89601	1.96713	0.0120258	-0.00886156
1.99167	0.00955948	0.00163189	0.0228118	0.892419	1.01955	-0.26633	-0.0774561	0.042615	0.131012	-0.893968	-0.21968	-0.0371035	0.00141215	0.304972	0.128136	0.225697	-0.368655	0.158003	-0.0750876	-0.00272192	-0.175986	-0.00868181	0.104412	-0.440191	-0.291894	0.0465834	1.87011	1.77672	-0.0038772	-0.00480395	-0.765563	-0.224627	-0.014673	1.8959	1.96119	0.0120258	-0.00886156
2	0.010312	0.00631808	0.0230051	0.890242	1.01323	-0.266818	-0.044557	0.0334023	0.116197	-0.967555	-0.201577	-0.0371035	0.00141215	0.315171	0.138873	0.222154	-0.411517	0.148308	-0.0750876	-0.00272192	-0.183108	-0.0144223	0.0920882	-0.44152	-0.288252	0.0438299	1.84754	1.77462	-0.0038772	-0.00480395	-0.752511	-0.220359	-0.0181177	1.89611	1.95324	0.0120258	-0.00886156
2.00833	0.0078412	0.0148093	0.022451	0.887739	1.00625	-0.267326	-0.00566005	0.0191607	0.104248	-1.04268	-0.183679	-0.0371035	0.00141215	0.330883	0.153639	0.216434	-0.458866	0.141872	-0.0750876	-0.00272192	-0.187476	-0.0242136	0.0785051	-0.441922	-0.284664	0.0417888	1.82253	1.77328	-0.0038772	-0.00480395	-0.738172	-0.216873	-0.0214906	1.89652	1.94309	0.0120258	-0.00886156
2.01667	0.00308483	0.0271337	0.0212909	0.884983	0.998878	-0.267847	0.0378457	0.00014582	0.0957094	-1.11807	-0.166842	-0.0371035	0.00141215	0.350488	0.172282	0.20884	-0.509271	0.140685	-0.0750876	-0.00272192	-0.189899	-0.0380971	0.0633459	-0.441174	-0.281056	0.0407144	1.7944	1.77275	-0.0038772	-0.00480395	-0.722363	-0.214364	-0.02474	1.89693	1.93077	0.0120258	-0.00886156
2.025	-0.00261995	0.0429465	0.0198424	0.882069	0.99143	-0.268378	0.0839261	-0.0228912	0.090675	-1.19212	-0.151622	-0.0371035	0.00141215	0.371524	0.194248	0.199906	-0.560823	0.145912	-0.0750876	-0.00272192	-0.191597	-0.0556826	0.0462077	-0.439103	-0.277324	0.0407954	1.76238	1.77294	-0.0038772	-0.00480395	-0.704871	-0.212979	-0.0277976	1.89706	1.91662	0.0120258	-0.00886156
2.03333	-0.0077387	0.061481	0.0185033	0.8791	0.984198	-0.26892	0.130191	-0.0487193	0.0888797	-1.2631	-0.138169	-0.0371035	0.00141215	0.391068	0.2186	0.190366	-0.611374	0.157778	-0.0750876	-0.00272192	-0.194041	-0.0761017	0.026931	-0.435864	-0.273334	0.0418707	1.72601	1.7736	-0.0038772	-0.00480395	-0.68536	-0.212871	-0.0304018	1.8966	1.90151	0.0120258	-0.00886156
2.04167	-0.0110032	0.0816374	0.0175642	0.876176	0.977421	-0.26947	0.174541	-0.0757283	0.0899192	-1.32938	-0.126241	-0.0371035	0.00141215	0.406437	0.244083	0.18099	-0.658794	0.175595	-0.0750876	-0.00272192	-0.198428	-0.0981249	0.0056736	-0.431828	-0.269028	0.0436097	1.68517	1.77429	-0.0038772	-0.00480395	-0.663489	-0.214078	-0.0322393	1.89523	1.88688	0.0120258	-0.00886156
2.05	-0.0116215	0.102102	0.0171128	0.873376	0.971292	-0.270022	0.215499	-0.102108	0.0933896	-1.38959	-0.115292	-0.0371035	0.00141215	0.415646	0.269279	0.172485	-0.701287	0.198068	-0.0750876	-0.00272192	-0.20549	-0.120277	-0.016876	-0.427747	-0.264428	0.0453532	1.64034	1.77459	-0.0038772	-0.00480395	-0.638899	-0.216561	-0.0328679	1.89279	1.87462	0.0120258	-0.00886156
2.05833	-0.00940232	0.121557	0.0170643	0.870764	0.965951	-0.270567	0.252351	-0.126119	0.0989094	-1.44269	-0.104649	-0.0371035	0.00141215	0.417615	0.292831	0.165441	-0.737506	0.223565	-0.0750876	-0.00272192	-0.215294	-0.141097	-0.0398348	-0.424474	-0.259729	0.0465053	1.59249	1.77414	-0.0038772	-0.00480395	-0.611475	-0.22007	-0.0320332	1.88928	1.86685	0.0120258	-0.00886156
2.06667	-0.00472854	0.138882	0.0172352	0.868387	0.961492	-0.271092	0.28511	-0.146324	0.10609	-1.48802	-0.0936989	-0.0371035	0.00141215	0.412189	0.313618	0.160308	-0.766601	0.250393	-0.0750876	-0.00272192	-0.227251	-0.159326	-0.0623599	-0.42281	-0.255302	0.0467185	1.54302	1.77279	-0.0038772	-0.00480395	-0.581493	-0.22413	-0.0298274	1.88502	1.86531	0.0120258	-0.00886156
2.075	0.0015877	0.153261	0.0174305	0.86627	0.957946	-0.271589	0.31436	-0.161748	0.114497	-1.52518	-0.0820139	-0.0371035	0.00141215	0.399989	0.33085	0.157383	-0.788203	0.277015	-0.0750876	-0.00272192	-0.240272	-0.174039	-0.0837837	-0.423442	-0.25163	0.045924	1.49368	1.77063	-0.0038772	-0.00480395	-0.549636	-0.228121	-0.0266965	1.88064	1.87083	0.0120258	-0.00886156
2.08333	0.00849694	0.164187	0.0175061	0.864432	0.955297	-0.272061	0.341014	-0.171904	0.123619	-1.55407	-0.0694181	-0.0371035	0.00141215	0.382169	0.344066	0.156812	-0.802335	0.302172	-0.0750876	-0.00272192	-0.253012	-0.184674	-0.103668	-0.426927	-0.249217	0.0442653	1.44648	1.76798	-0.0038772	-0.00480395	-0.516894	-0.231398	-0.0233265	1.87706	1.88298	0.0120258	-0.00886156
2.09167	0.0149163	0.171425	0.0174076	0.862883	0.953498	-0.272516	0.366069	-0.17674	0.13286	-1.57474	-0.0559694	-0.0371035	0.00141215	0.360118	0.353074	0.158618	-0.809295	0.324936	-0.0750876	-0.00272192	-0.264129	-0.190979	-0.121789	-0.433695	-0.248499	0.041983	1.40352	1.76534	-0.0038772	-0.00480395	-0.484404	-0.233428	-0.0204455	1.87532	1.90009	0.0120258	-0.00886156
2.1	0.0199055	0.174952	0.0171796	0.861631	0.952493	-0.272968	0.390379	-0.176539	0.141563	-1.58739	-0.0418851	-0.0371035	0.00141215	0.33519	0.357888	0.162759	-0.80954	0.344673	-0.0750876	-0.00272192	-0.272502	-0.192939	-0.138092	-0.444063	-0.249767	0.0392916	1.36678	1.76325	-0.0038772	-0.00480395	-0.453252	-0.233888	-0.0186091	1.8764	1.9197	0.0120258	-0.00886156
